<svg width="131" height="46" viewBox="0 0 119 42" fill="none" xmlns="http://www.w3.org/2000/svg">
<path d="M85.0557 11.3648L84.7064 12.3713L76.6425 35.5799L68.5732 12.3335C68.3716 11.7537 67.8261 11.3648 67.2122 11.3648H56.3685V9.7247C56.3685 8.02874 56.7394 6.8459 57.4811 6.17436C58.2229 5.46861 59.5119 5.11394 61.3483 5.11394V0.0800781C57.5333 0.0800781 54.7247 0.857841 52.9244 2.41157C51.1582 3.93109 50.276 6.367 50.276 9.7229V11.363H46.8319C44.8191 11.363 43.0709 11.7357 41.5874 12.5837C40.1399 13.3957 38.9732 14.5443 38.091 16.0278V11.363H32.0508V41.0801H38.091V25.6166C38.091 22.6496 38.6924 20.5648 39.8932 19.3639C41.1301 18.1631 42.9305 17.1675 45.298 17.1675H50.2778V41.0783H56.3703V17.1675H62.9615C63.5592 17.1675 64.0957 17.5383 64.3082 18.0965L72.8959 40.738L73.0256 41.0783H80.1569L80.3099 40.6786L91.0474 12.5081L91.4686 11.363H85.0575L85.0557 11.3648Z" fill="#1A1A1A"/>
<path d="M118.153 25.528C118.153 22.7446 117.563 20.2925 116.38 18.1717C115.197 16.0148 113.544 14.3459 111.423 13.163C109.303 11.9802 106.885 11.3896 104.171 11.3896C101.458 11.3896 98.8495 11.9982 96.6585 13.2152C94.5016 14.4323 92.8147 16.1715 91.5976 18.4327C90.4147 20.6598 89.8242 23.2505 89.8242 26.2068C89.8242 29.163 90.4327 31.7717 91.6498 34.033C92.9029 36.2583 94.606 37.9992 96.7629 39.2505C98.9539 40.4675 101.424 41.0761 104.171 41.0761C107.545 41.0761 110.363 40.2407 112.624 38.5718C114.92 36.8668 116.502 34.6937 117.372 32.049H110.953C109.632 34.7279 107.371 36.0674 104.17 36.0674C101.944 36.0674 100.065 35.3725 98.5344 33.9808C97.0041 32.5891 96.1525 30.7455 95.9779 28.45H117.944C118.083 27.5804 118.153 26.6064 118.153 25.528ZM96.0301 23.6502C96.3092 21.4232 97.1788 19.6678 98.6389 18.3805C100.099 17.059 101.856 16.3983 103.909 16.3983C106.17 16.3983 108.066 17.059 109.596 18.3805C111.126 19.702 111.909 21.4592 111.944 23.6502H96.0301Z" fill="#1A1A1A"/>
<path d="M23.5309 11.3737V16.0169C22.5227 14.6954 21.1652 13.599 19.4603 12.7294C17.7913 11.8256 15.8253 11.3719 13.564 11.3719C11.0597 11.3719 8.76424 11.9984 6.6776 13.2497C4.62517 14.4668 2.99043 16.1897 1.77337 18.415C0.590522 20.6421 0 23.1986 0 26.0846C0 28.9706 0.590522 31.5632 1.77337 33.8586C2.99043 36.1199 4.62517 37.8933 6.6776 39.1806C8.73003 40.4336 10.9913 41.0583 13.4614 41.0583C15.6885 41.0583 17.6707 40.6064 19.4099 39.7027C21.149 38.7989 22.5227 37.6682 23.5309 36.3107V41.0583H29.5316V11.3701H23.5309V11.3737ZM22.2779 31.4101C21.4785 32.8702 20.4163 33.9847 19.0948 34.7498C17.7733 35.515 16.3474 35.8985 14.8171 35.8985C13.2868 35.8985 11.8951 35.5168 10.5394 34.7498C9.21793 33.9505 8.13951 32.8018 7.30413 31.3057C6.50477 29.8096 6.10328 28.0704 6.10328 26.0882C6.10328 24.106 6.50297 22.401 7.30413 20.9751C8.13951 19.515 9.21793 18.4186 10.5394 17.6876C11.8609 16.9225 13.2868 16.539 14.8171 16.539C16.3474 16.539 17.7733 16.9207 19.0948 17.6876C20.4163 18.4528 21.4767 19.5654 22.2779 21.0273C23.1132 22.4874 23.5309 24.2104 23.5309 26.1926C23.5309 28.1748 23.1132 29.914 22.2779 31.4101Z" fill="#1A1A1A"/>
</svg>
